<?xml version="1.0" encoding="utf-8"?>
<svg viewBox="0 0 512.0 512.0" xmlns="http://www.w3.org/2000/svg">
 <svg height="100.0%" version="1.1" viewBox="0 0 512 512" width="100.0%" x="0.0%" xmlns="http://www.w3.org/2000/svg" y="0.0%">
  <defs color-interpolation-filters="sRGB">
   <linearGradient gradientUnits="userSpaceOnUse" id="night-gradient" x2="512" y1="512">
    <stop offset="0%" stop-color="#051636"/>
    <stop offset="30%" stop-color="#001953"/>
    <stop offset="65%" stop-color="#001A69"/>
    <stop offset="100%" stop-color="#011256"/>
   </linearGradient>
  </defs>
  <rect class="background" fill="url(#night-gradient)" height="100%" width="100%"/>
 </svg>
 <svg filter="url(#emblematic-compose-shadow)" height="63.0%" preserveAspectRatio="xMidYMid meet" viewBox="0 0 448 512" width="63.0%" x="18.5%" xmlns="http://www.w3.org/2000/svg" y="18.5%">
  <!--! Font Awesome Pro 6.7.2 by @fontawesome - https://fontawesome.com License - https://fontawesome.com/license (Commercial License) Copyright 2024 Fonticons, Inc. -->
  <path d="M0 80L0 229.5c0 17 6.7 33.3 18.7 45.3l176 176c25 25 65.5 25 90.5 0L418.7 317.3c25-25 25-65.5 0-90.5l-176-176c-12-12-28.3-18.7-45.3-18.7L48 32C21.5 32 0 53.5 0 80zm112 32a32 32 0 1 1 0 64 32 32 0 1 1 0-64z" fill="#85C3FF"/>
  <defs>
   <filter color-interpolation-filters="sRGB" id="emblematic-compose-shadow">
    <feFlood flood-color="#010828" flood-opacity="0.5" in="SourceGraphic" result="flood"/>
    <feGaussianBlur in="SourceGraphic" result="blur" stdDeviation="24.0"/>
    <feOffset dx="-4.0" dy="8.0" in="blur" result="offset"/>
    <feComposite in="flood" in2="offset" operator="in" result="shadow"/>
    <feComposite in="SourceGraphic" in2="shadow" operator="over" result="image"/>
   </filter>
  </defs>
 </svg>
</svg>
